<svg id="Layer_1" data-name="Layer 1" xmlns="http://www.w3.org/2000/svg" viewBox="0 0 585.47 154.1"><path d="M203.94,114.67h4.35l1.12,22.3c.08,1.63,0,3.23,0,3.23h.08s.56-1.55,1.34-3.23l10.5-22.3h3.87l1.34,22.3c.08,1.5,0,3.23,0,3.23h.08s.56-1.64,1.25-3.23l9.69-22.3h4.65l-13.69,30.39h-5l-1.33-19.71a42.45,42.45,0,0,1,0-4.31h-.09s-.9,2.33-1.8,4.26l-9.43,19.76H206Z" fill="rgb(213, 0, 55)"/><path d="M252.7,122.76c5.64,0,8.31,3.36,8.31,8a15.92,15.92,0,0,1-.69,4H244.44a6.27,6.27,0,0,0-.13,1.29c0,3.23,2.11,5.9,6.2,5.9a12.62,12.62,0,0,0,6.93-2.54l1.2,3.32a14.84,14.84,0,0,1-8.3,2.84c-6.37,0-10.29-3.88-10.29-9.3C240.05,129.05,245.39,122.76,252.7,122.76Zm4.05,8.87a6.81,6.81,0,0,0,.09-1.16c0-2.93-1.77-4.39-4.22-4.39a8.2,8.2,0,0,0-7.49,5.55Z" fill="rgb(213, 0, 55)"/><path d="M288.21,122.76c5.73,0,8.22,3.14,8.22,3.14l-2.32,2.72a8.13,8.13,0,0,0-5.68-2.24,9.56,9.56,0,0,0-9.39,9.43c0,3.61,2.5,6.15,6.37,6.15a12.37,12.37,0,0,0,7.32-2.93l1.16,3.32a14.13,14.13,0,0,1-8.86,3.23c-6.29,0-10.25-3.88-10.25-9.47A13.51,13.51,0,0,1,288.21,122.76Z" fill="rgb(213, 0, 55)"/><path d="M311.67,131.46h1.07a7.71,7.71,0,0,0,.18-1.77c0-2-1-3.4-3.92-3.4a13.57,13.57,0,0,0-6.5,2.07L301.38,125a17,17,0,0,1,8.22-2.28c4.18,0,7.58,1.77,7.58,6.46a12.63,12.63,0,0,1-.26,2.41l-2.63,13.43h-3.87l.43-2.2a6.5,6.5,0,0,1,.47-1.72h-.08s-2.63,4.44-7.58,4.44c-3.44,0-6.5-2-6.5-5.51C297.16,133,305.77,131.46,311.67,131.46Zm-6.76,10.76c3.49,0,6.37-3.66,7.15-6.89l.17-.73h-1.08c-3.06,0-9.73.34-9.73,4.78C301.42,140.88,302.5,142.22,304.91,142.22Z" fill="rgb(213, 0, 55)"/><path d="M324.71,123.28h4.09l-.48,2.54a15.81,15.81,0,0,1-.6,2.07h.09a10.86,10.86,0,0,1,9-5.13c3.88,0,6.38,1.81,6.38,5.77a16.07,16.07,0,0,1-.31,2.76l-2.67,13.77H336l2.5-12.87a13.7,13.7,0,0,0,.3-2.45c0-2.16-1.25-3.15-3.23-3.15-4.39,0-8.14,4-9,8.53l-1.89,9.94h-4.18Z" fill="rgb(213, 0, 55)"/><path d="M358.49,139.68a8.54,8.54,0,0,0,6,2.37c2,0,4.39-1.08,4.39-3.23,0-3.32-9.56-3-9.56-9.34,0-4.26,4.22-6.72,8.36-6.72,4.77,0,7.1,2.41,7.1,2.41l-2.07,2.89a7.06,7.06,0,0,0-5.08-1.77c-1.89,0-4.35.91-4.35,3.15,0,3.31,9.6,3,9.6,9.38,0,4-3.74,6.76-8.39,6.76a11.83,11.83,0,0,1-8.31-3.15Z" fill="rgb(213, 0, 55)"/><path d="M377.78,137.05l2.66-13.77h4.18l-2.5,12.83a14.53,14.53,0,0,0-.26,2.49c0,1.9.78,3.1,3.28,3.1,4.34,0,7.87-4.26,8.69-8.52l1.94-9.9h4.17l-4.22,21.78h-4.08l.51-2.54c.22-1,.56-2.07.56-2.07h-.08a10.66,10.66,0,0,1-8.83,5.13c-3.4,0-6.33-1.55-6.33-5.77A15.65,15.65,0,0,1,377.78,137.05Z" fill="rgb(213, 0, 55)"/><path d="M404.72,153.67h-4.18l5.9-30.39h3.87l-.34,1.85a14.63,14.63,0,0,1-.47,1.72h.08a9,9,0,0,1,7.58-4.09c5.21,0,8.18,3.49,8.18,9,0,8.22-5.86,13.86-11.84,13.86-2.88,0-5.42-1.25-6.5-3.79h-.09s-.08.9-.3,2ZM413,142c3.78,0,8.05-3.7,8.05-9.94,0-3.49-1.86-5.6-4.91-5.6-4.48,0-8,4.87-8,9.94C408.16,139.42,409.71,142,413,142Z" fill="rgb(213, 0, 55)"/><path d="M430.5,153.67h-4.18l5.9-30.39h3.87l-.34,1.85a14.63,14.63,0,0,1-.47,1.72h.08a9,9,0,0,1,7.58-4.09c5.21,0,8.18,3.49,8.18,9,0,8.22-5.86,13.86-11.84,13.86-2.88,0-5.42-1.25-6.5-3.79h-.09s-.08.9-.3,2ZM438.81,142c3.78,0,8.05-3.7,8.05-9.94,0-3.49-1.85-5.6-4.91-5.6-4.48,0-8,4.87-8,9.94C433.94,139.42,435.49,142,438.81,142Z" fill="rgb(213, 0, 55)"/><path d="M454.73,138.82l4.69-24.15h4.18l-4.52,23.42a8.08,8.08,0,0,0-.22,1.63c0,1.59,1,1.77,1.94,1.77a4.66,4.66,0,0,0,.69-.05l-.78,3.71a10.64,10.64,0,0,1-1.24.08c-2.29,0-5-.86-5-4.56A10.47,10.47,0,0,1,454.73,138.82Z" fill="rgb(213, 0, 55)"/><path d="M463.81,150.48c1.85,0,3.4-1.16,4.61-3.14l1.59-2.58-5-21.48h4.34L472.29,138c.22,1.12.35,2.58.35,2.58h0s.64-1.42,1.25-2.49l8.18-14.81h4.69l-15.28,25.78c-2,3.4-4.78,5-7.54,5a7.78,7.78,0,0,1-4.47-1.42l1.93-3A3.91,3.91,0,0,0,463.81,150.48Z" fill="rgb(213, 0, 55)"/><path d="M498.33,136.67l1.89-9.77h-2.84l.65-3.41H501l1.24-6.19h4.05L505,123.49h5.25l-.64,3.41h-5.25l-1.81,9.51a9.1,9.1,0,0,0-.17,1.72c0,3,2,3.4,3.57,3.4a8.1,8.1,0,0,0,1.25-.09l-.73,3.71a13.73,13.73,0,0,1-1.38.08c-3.36,0-7-1.2-7-6.37A10.88,10.88,0,0,1,498.33,136.67Z" fill="rgb(213, 0, 55)"/><path d="M516.88,114.67h4.18l-2.16,11.15c-.21,1-.47,1.94-.47,1.94h.09a10.6,10.6,0,0,1,8.78-5c3.91,0,6.41,1.81,6.41,5.77a13.74,13.74,0,0,1-.34,2.76l-2.67,13.77h-4.18l2.5-12.87a13.7,13.7,0,0,0,.3-2.45c0-2.16-1.25-3.15-3.23-3.15-4.35,0-8.13,4-9,8.53l-1.93,9.94H511Z" fill="rgb(213, 0, 55)"/><path d="M550.62,131.46h1.08a8.15,8.15,0,0,0,.17-1.77c0-2-1-3.4-3.91-3.4a13.57,13.57,0,0,0-6.5,2.07L540.34,125a17,17,0,0,1,8.22-2.28c4.17,0,7.57,1.77,7.57,6.46a12.57,12.57,0,0,1-.25,2.41l-2.63,13.43h-3.87l.43-2.2a6.5,6.5,0,0,1,.47-1.72h-.09s-2.62,4.44-7.57,4.44c-3.44,0-6.5-2-6.5-5.51C536.12,133,544.73,131.46,550.62,131.46Zm-6.75,10.76c3.48,0,6.37-3.66,7.14-6.89l.17-.73h-1.07c-3.06,0-9.73.34-9.73,4.78C540.38,140.88,541.46,142.22,543.87,142.22Z" fill="rgb(213, 0, 55)"/><path d="M561.94,136.67l1.9-9.77H561l.64-3.41h2.93l1.25-6.19h4l-1.25,6.19h5.26l-.65,3.41H568l-1.81,9.51a9.1,9.1,0,0,0-.17,1.72c0,3,2,3.4,3.57,3.4a8.1,8.1,0,0,0,1.25-.09l-.73,3.71a13.73,13.73,0,0,1-1.38.08c-3.36,0-7-1.2-7-6.37A10.88,10.88,0,0,1,561.94,136.67Z" fill="rgb(213, 0, 55)"/><path d="M575.46,140.54h4.47l-.86,4.52H574.6Z" fill="rgb(213, 0, 55)"/><path d="M517.53,55H502.44l-6.94-9.29H453.37L446.08,55H432.15s.79-1.36,1.14-1.85c10.57-14.83,32.86-46,32.86-46l17.3,0S506,38.72,516.85,54c.14.19.68,1.08.68,1.08M474.47,15.48,460.16,35.83h28.57Z" fill="rgb(0, 73, 135)"/><path d="M363.93,55V7.5l48.71.18a42.55,42.55,0,0,1,10.12,1.66c5.05,1.54,7.58,5.3,7.63,10.26.06,5.13-2,8-7.29,10.16-.88.36-1.77.69-3.07,1.19,1.37.39,2.3.62,3.2.9,5.17,1.6,7.44,4.33,7.84,9.46a10.73,10.73,0,0,1-6.28,10.78c-5,2.46-10.38,2.9-15.82,2.91-14.53,0-45,0-45,0m12.75-19.33V45c.59,0,1,.09,1.39.09,10.84,0,21.68,0,32.52,0a11.49,11.49,0,0,0,3.39-.49c2.84-.9,3.83-2,3.74-4.39s-1.24-3.63-4.14-4a66.13,66.13,0,0,0-8.33-.45c-9.44,0-18.87,0-28.57,0m-.05-9.57c.68.07,1.23.18,1.78.18,10.51,0,21,0,31.52,0a10,10,0,0,0,4.13-.58c1.78-.75,3-1.68,3-3.67s-1-3.14-2.84-3.75a17.22,17.22,0,0,0-5.32-.8c-9.93-.08-19.86,0-29.79,0-.8,0-1.59.07-2.51.11Z" fill="rgb(0, 73, 135)"/><polygon points="212.48 7.65 212.48 55.03 272.91 55.03 272.91 44.38 225.76 44.38 225.76 7.65 212.48 7.65" fill="rgb(0, 73, 135)"/><polygon points="524.23 7.65 524.23 55.04 584.66 55.04 584.66 44.38 537.51 44.38 537.51 7.65 524.23 7.65" fill="rgb(0, 73, 135)"/><path d="M538.14,98.37H527.87l-4.73-6.32H494.47l-5,6.32H480s.54-.93.78-1.26C488,87,503.17,65.84,503.17,65.84l11.78,0s15.34,21.45,22.73,31.82c.09.12.46.73.46.73M508.83,71.45,499.09,85.3h19.45Z" fill="rgb(0, 73, 135)"/><polygon points="543.2 65.87 543.2 98.38 584.66 98.38 584.66 91.07 552.32 91.07 552.32 65.87 543.2 65.87" fill="rgb(0, 73, 135)"/><path d="M356.48,29.32c-1.33-11.94-7.18-22.6-39.63-22.6s-38.29,10.66-39.62,22.6.63,28.44,39.62,28.44,40.95-16.57,39.63-28.44M334.9,45.09a72.75,72.75,0,0,1-18,2.46,72.81,72.81,0,0,1-18.05-2.46c-5.91-1.79-8.31-6.66-8.05-13.69.24-6.25,3.32-10.64,9.14-12.28a64,64,0,0,1,33.93,0c5.82,1.64,8.9,6,9.13,12.28.27,7-2.14,11.9-8.05,13.69" fill="rgb(0, 73, 135)"/><path d="M200.15,10.59v10.8s-9.87-2.54-14.87-3.2c-10.44-1.38-20.93-2-31.32.56-6.47,1.58-9.8,5.79-10,12.52-.21,8.07,2.44,12.33,9.31,14.23a62.3,62.3,0,0,0,32.58,0c3.88-1,5.49-3.37,5.44-7.46H162.05V28.8h41.61c.07,5.8.72,11.63-1.9,17.11-2.44,5.12-8.42,11.73-32.53,11.73-8.36,0-16.74-.37-24.71-3.43-8.19-3.14-12.9-9.13-14-17.77-1-8,.24-15.41,6.2-21.43,4.2-4.23,10.52-8.22,36.53-8.22a107.47,107.47,0,0,1,26.88,3.8" fill="rgb(0, 73, 135)"/><path d="M133.05,65.78H142V98.35h-8.91Z" fill="rgb(0, 73, 135)"/><path d="M467.5,65.86h8.92V98.35H467.5Z" fill="rgb(0, 73, 135)"/><path d="M156.79,98.1H148V65.89c2.88,0,13.44-.06,13.44-.06l4.45,3.72S180,82.85,187.14,89.46c.44.41.91.8,1.63,1.44V66h8.77V98.19h-2.39c-3.12,0-10.93,0-10.93,0L183,97.06s-16.68-15.47-25-23.22c-.32-.29-.67-.54-1.24-1Z" fill="rgb(0, 73, 135)"/><path d="M204.16,65.86c9.07,0,18-.09,26.94,0a48.66,48.66,0,0,1,9.08,1c5.68,1.18,9.85,4.4,11.45,10.14,1.66,5.93.84,11.48-3.69,16-2.74,2.76-6.28,3.91-10,4.37a81.45,81.45,0,0,1-9,.66c-8.21.09-16.43,0-24.79,0Zm9,7.22V90.79s15.07.06,22.52-.45a7.44,7.44,0,0,0,7.06-5.47c1.73-5.85-1.43-10.82-7.55-11.31-5.46-.44-11-.35-16.46-.47C216.9,73.05,215.08,73.08,213.15,73.08Z" fill="rgb(0, 73, 135)"/><path d="M256.8,65.65h9.13v1.76c0,5.25,0,10.49,0,15.74,0,3.57,1.57,6.21,5,7.29A31.83,31.83,0,0,0,291,90.35c3.31-1.1,4.77-3.71,4.81-7.1.05-5.36,0-10.72,0-16.08V65.7H305v.9s0,12,0,17.92c0,7.52-4.74,11.11-9.88,12.73-6.21,2-12.63,2.06-19.06,1.63a32.15,32.15,0,0,1-10.77-2.18c-5.19-2.22-8.29-5.93-8.36-11.75-.07-6.14-.06-18.42-.06-18.42Z" fill="rgb(0, 73, 135)"/><path d="M309.81,88.18c5.25,1,10.31,2.47,15.46,2.93,5.91.53,11.89.23,17.84.23a10.45,10.45,0,0,0,2.57-.46,1.86,1.86,0,0,0,1.43-2.41,2.58,2.58,0,0,0-1.92-2,49.9,49.9,0,0,0-8.38-.84c-6.34-.28-12.72-.19-18.93-1.77-4.77-1.21-6.95-3.65-7.13-7.77-.21-4.83,1.95-8.08,6.52-9.65a20.9,20.9,0,0,1,4.09-1A79,79,0,0,1,350.82,67c1.86.46,2.41.66,2.41.66s0,5.76,0,7.57c-2.11-.6-4-1.23-5.95-1.68a71.13,71.13,0,0,0-23.81-1.39,11.6,11.6,0,0,0-2.29.56c-1.07.34-1.9,1.12-1.57,2.23a3.17,3.17,0,0,0,1.76,1.89,20.91,20.91,0,0,0,4.81.69c5.4.28,10.8.36,16.18.77a42.06,42.06,0,0,1,8.09,1.49c3.57,1,5.3,3.65,5.47,7.27s-.68,7.22-4.39,8.74a35.25,35.25,0,0,1-9.87,2.53,80.09,80.09,0,0,1-28-1.87c-3.86-1-3.85-1.16-3.85-1.16Z" fill="rgb(0, 73, 135)"/><path d="M378.55,73.18H357.87V65.93h50.55V73.1H387.93V98.44h-9.38Z" fill="rgb(0, 73, 135)"/><path d="M414,66a8,8,0,0,1,.94-.11c10.86,0,21.73,0,32.59.14a22.11,22.11,0,0,1,6.93,1.22c4.42,1.53,6.24,5,6,10.71a9.44,9.44,0,0,1-7,8.9c-1.71.49-3.5.73-5.67,1.16,2.87,1.83,15.75,10.47,15.75,10.47l-13.11.05L434.84,87.94l-11.62,0V98.32H414Zm9.22,15c7.88,0,15.65,0,23.41,0a7.32,7.32,0,0,0,2.29-.52,3.54,3.54,0,0,0,2.36-3.69,3.22,3.22,0,0,0-2.78-3.16,27.18,27.18,0,0,0-4-.35c-6.53,0-13.06,0-19.6,0-.53,0-1.07.06-1.65.1Z" fill="rgb(0, 73, 135)"/><path d="M85.6,12.92a120.18,120.18,0,0,1-6.36,21.47h20.85A51.53,51.53,0,0,0,85.6,12.92Z" fill="rgb(213, 0, 55)"/><path d="M43.71,82.16A137.91,137.91,0,0,1,31,91.33C51.53,87,78.48,79.5,100.66,66.93h0A51.36,51.36,0,0,0,103,51.51a52.54,52.54,0,0,0-.54-7.47H74.84A119.84,119.84,0,0,1,43.71,82.16Z" fill="rgb(213, 0, 55)"/><path d="M68.86,34.39A110.22,110.22,0,0,0,76.94,6.72h0a51.51,51.51,0,0,0-74,27.67Z" fill="rgb(213, 0, 55)"/><path d="M47.18,97.55c-4.16,1-8.18,2-12,2.81h0A51.52,51.52,0,0,0,93.29,81.61,260.7,260.7,0,0,1,47.18,97.55Z" fill="rgb(213, 0, 55)"/><path d="M16.08,88.88h0A132.28,132.28,0,0,0,37.9,74.44,110.78,110.78,0,0,0,64,44H.55A51.4,51.4,0,0,0,16.08,88.88Z" fill="rgb(213, 0, 55)"/><path d="M64,44A110.78,110.78,0,0,1,37.9,74.44,132.28,132.28,0,0,1,16.08,88.88h0a51.59,51.59,0,0,0,19.1,11.48h0c3.81-.83,7.83-1.76,12-2.81A260.7,260.7,0,0,0,93.29,81.61a51.37,51.37,0,0,0,7.37-14.68h0C78.48,79.5,51.53,87,31,91.33a137.91,137.91,0,0,0,12.68-9.17A119.84,119.84,0,0,0,74.84,44h27.63a51.57,51.57,0,0,0-2.38-9.65H79.24A120.18,120.18,0,0,0,85.6,12.92h0a52.09,52.09,0,0,0-8.66-6.2h0a110.22,110.22,0,0,1-8.08,27.67H2.92A50.78,50.78,0,0,0,.55,44Z" fill="rgb(255, 255, 255)"/><path d="M580.6,115.15a4.34,4.34,0,0,1,2.1.55,3.9,3.9,0,0,1,1.59,1.58,4.31,4.31,0,0,1,.57,2.13,4.37,4.37,0,0,1-.56,2.12,3.88,3.88,0,0,1-1.58,1.58,4.34,4.34,0,0,1-2.12.56,4.39,4.39,0,0,1-2.12-.56,3.92,3.92,0,0,1-1.57-1.58,4.25,4.25,0,0,1,0-4.25,4,4,0,0,1,1.6-1.58A4.33,4.33,0,0,1,580.6,115.15Zm0,.71a3.57,3.57,0,0,0-1.74.46,3.23,3.23,0,0,0-1.33,1.31,3.61,3.61,0,0,0-.48,1.78,3.5,3.5,0,0,0,.47,1.77,3.26,3.26,0,0,0,1.32,1.31,3.49,3.49,0,0,0,3.53,0,3.26,3.26,0,0,0,1.32-1.31,3.55,3.55,0,0,0,0-3.55,3.23,3.23,0,0,0-1.33-1.31A3.61,3.61,0,0,0,580.6,115.86Zm-1.86,5.91v-4.59h1.57a4,4,0,0,1,1.17.13,1.21,1.21,0,0,1,.58.44,1.23,1.23,0,0,1,.21.68,1.22,1.22,0,0,1-.36.87,1.4,1.4,0,0,1-.95.42,1.44,1.44,0,0,1,.39.24,5.87,5.87,0,0,1,.68.91l.56.9h-.91l-.4-.72a3.56,3.56,0,0,0-.78-1.07.9.9,0,0,0-.59-.16h-.44v2Zm.73-2.58h.9a1.52,1.52,0,0,0,.88-.19.63.63,0,0,0,.24-.51.61.61,0,0,0-.12-.37.76.76,0,0,0-.31-.24,2.42,2.42,0,0,0-.74-.08h-.85Z" fill="rgb(212, 30, 61)"/><path d="M579.41,8.52a6.13,6.13,0,0,1,3,.79,5.48,5.48,0,0,1,2.26,2.24,6.05,6.05,0,0,1,0,6.05,5.68,5.68,0,0,1-2.24,2.24,6.08,6.08,0,0,1-6,0,5.7,5.7,0,0,1-2.25-2.24,6.09,6.09,0,0,1,0-6.05,5.56,5.56,0,0,1,2.27-2.24A6.13,6.13,0,0,1,579.41,8.52Zm0,1a5.08,5.08,0,0,0-2.48.65A4.66,4.66,0,0,0,575,12.05a5.07,5.07,0,0,0-.69,2.53,5.13,5.13,0,0,0,.67,2.51A4.76,4.76,0,0,0,576.9,19a5,5,0,0,0,5,0,4.61,4.61,0,0,0,1.87-1.87,5,5,0,0,0,.67-2.51,5.17,5.17,0,0,0-.68-2.53,4.66,4.66,0,0,0-1.89-1.87A5.11,5.11,0,0,0,579.41,9.53Zm-2.66,8.4V11.41H579a5.57,5.57,0,0,1,1.67.18,1.58,1.58,0,0,1,.81.63,1.64,1.64,0,0,1,.31,1,1.71,1.71,0,0,1-.51,1.24,2,2,0,0,1-1.35.6,1.72,1.72,0,0,1,.55.34,7.63,7.63,0,0,1,1,1.3l.8,1.27h-1.29l-.57-1a5.33,5.33,0,0,0-1.1-1.51,1.39,1.39,0,0,0-.85-.23h-.61v2.77Zm1.06-3.67h1.27a2.08,2.08,0,0,0,1.25-.27.88.88,0,0,0,.33-.72.87.87,0,0,0-.16-.52.89.89,0,0,0-.44-.34A3.19,3.19,0,0,0,579,12.3h-1.19Z" fill="rgb(0, 73, 135)"/></svg>