<svg width="599" height="599" viewBox="0 0 599 599" fill="none" xmlns="http://www.w3.org/2000/svg">
<mask id="mask0_90_1175" style="mask-type:alpha" maskUnits="userSpaceOnUse" x="189" y="383" width="42" height="56">
<path d="M192.574 384H220.412L230 393.769V434.83C230 436.252 228.847 437.404 227.426 437.404H192.574C191.153 437.404 190 436.252 190 434.83V386.574L190.014 386.312C190.145 385.013 191.241 384 192.574 384Z" fill="white" stroke="#4F46E5" stroke-width="2"/>
</mask>
<g mask="url(#mask0_90_1175)">
<path d="M192.574 384H220.412L230 393.769V434.83C230 436.252 228.847 437.404 227.426 437.404H192.574C191.153 437.404 190 436.252 190 434.83V386.574L190.014 386.312C190.145 385.013 191.241 384 192.574 384Z" fill="white" stroke="#4F46E5" stroke-width="2"/>
<path d="M225.202 388.881L229.058 392.81H223.07C222.142 392.81 221.389 392.058 221.389 391.13V384.996L225.202 388.881Z" fill="#D8D5FF" stroke="#4F46E5" stroke-width="2"/>
</g>
<mask id="mask1_90_1175" style="mask-type:alpha" maskUnits="userSpaceOnUse" x="271" y="383" width="42" height="56">
<path d="M274.574 384H302.412L312 393.769V434.83C312 436.252 310.847 437.404 309.426 437.404H274.574C273.153 437.404 272 436.252 272 434.83V386.574L272.014 386.312C272.145 385.013 273.241 384 274.574 384Z" fill="white" stroke="#4F46E5" stroke-width="2"/>
</mask>
<g mask="url(#mask1_90_1175)">
<path d="M274.574 384H302.412L312 393.769V434.83C312 436.252 310.847 437.404 309.426 437.404H274.574C273.153 437.404 272 436.252 272 434.83V386.574L272.014 386.312C272.145 385.013 273.241 384 274.574 384Z" fill="white" stroke="#4F46E5" stroke-width="2"/>
<path d="M307.202 388.881L311.058 392.81H305.07C304.142 392.81 303.389 392.058 303.389 391.13V384.996L307.202 388.881Z" fill="#D8D5FF" stroke="#4F46E5" stroke-width="2"/>
</g>
<mask id="path-7-inside-1_90_1175" fill="white">
<path d="M382 392C390.015 392 396.733 397.547 398.527 405.012C404.91 405.288 410 410.549 410 417C410 423.627 404.627 429 398 429H365V428.988C358.328 428.726 353 423.236 353 416.5C353 409.596 358.596 404 365.5 404C365.583 404 365.665 404.001 365.747 404.003C367.881 397.053 374.35 392 382 392Z"/>
</mask>
<path d="M382 392C390.015 392 396.733 397.547 398.527 405.012C404.91 405.288 410 410.549 410 417C410 423.627 404.627 429 398 429H365V428.988C358.328 428.726 353 423.236 353 416.5C353 409.596 358.596 404 365.5 404C365.583 404 365.665 404.001 365.747 404.003C367.881 397.053 374.35 392 382 392Z" fill="white"/>
<path d="M398.527 405.012L396.583 405.479L396.935 406.945L398.441 407.01L398.527 405.012ZM365 429H363V431H365V429ZM365 428.988H367V427.065L365.079 426.99L365 428.988ZM365.747 404.003L365.708 406.003L367.216 406.032L367.659 404.59L365.747 404.003ZM382 392V394C389.069 394 394.999 398.893 396.583 405.479L398.527 405.012L400.472 404.544C398.466 396.202 390.961 390 382 390V392ZM398.527 405.012L398.441 407.01C403.758 407.24 408 411.625 408 417H410H412C412 409.474 406.062 403.336 398.614 403.014L398.527 405.012ZM410 417H408C408 422.523 403.523 427 398 427V429V431C405.732 431 412 424.732 412 417H410ZM398 429V427H365V429V431H398V429ZM365 429H367V428.988H365H363V429H365ZM365 428.988L365.079 426.99C359.475 426.769 355 422.157 355 416.5H353H351C351 424.315 357.181 430.682 364.921 430.987L365 428.988ZM353 416.5H355C355 410.701 359.701 406 365.5 406V404V402C357.492 402 351 408.492 351 416.5H353ZM365.5 404V406C365.562 406 365.629 406.001 365.708 406.003L365.747 404.003L365.786 402.003C365.701 402.002 365.603 402 365.5 402V404ZM365.747 404.003L367.659 404.59C369.543 398.456 375.253 394 382 394V392V390C373.447 390 366.22 395.65 363.835 403.416L365.747 404.003Z" fill="#4F46E5" mask="url(#path-7-inside-1_90_1175)"/>
<circle cx="245" cy="411" r="2" fill="#4F46E5"/>
<circle cx="257" cy="411" r="2" fill="#4F46E5"/>
<circle cx="327" cy="411" r="2" fill="#4F46E5"/>
<circle cx="339" cy="411" r="2" fill="#4F46E5"/>
<path d="M278 246C276.895 246 276 246.895 276 248C276 249.105 276.895 250 278 250V248V246ZM379.414 249.414C380.195 248.633 380.195 247.367 379.414 246.586L366.686 233.858C365.905 233.077 364.639 233.077 363.858 233.858C363.077 234.639 363.077 235.905 363.858 236.686L375.172 248L363.858 259.314C363.077 260.095 363.077 261.361 363.858 262.142C364.639 262.923 365.905 262.923 366.686 262.142L379.414 249.414ZM278 248V250H378V248V246H278V248Z" fill="#4F46E5"/>
<mask id="path-14-inside-2_90_1175" fill="white">
<path d="M466.342 254.468C499.668 254.468 526.684 264.259 526.684 276.335C526.684 276.459 526.679 276.582 526.674 276.705H526.684V307.097H526.674C526.128 319.003 499.326 328.593 466.342 328.593C433.358 328.593 406.556 319.003 406.01 307.097H406V276.705H406.01C406.004 276.582 406 276.459 406 276.335C406 264.258 433.016 254.468 466.342 254.468Z"/>
</mask>
<path d="M466.342 254.468C499.668 254.468 526.684 264.259 526.684 276.335C526.684 276.459 526.679 276.582 526.674 276.705H526.684V307.097H526.674C526.128 319.003 499.326 328.593 466.342 328.593C433.358 328.593 406.556 319.003 406.01 307.097H406V276.705H406.01C406.004 276.582 406 276.459 406 276.335C406 264.258 433.016 254.468 466.342 254.468Z" fill="#D8D5FF"/>
<path d="M466.342 254.468V252.468V252.468V254.468ZM526.684 276.335L528.684 276.335V276.335H526.684ZM526.674 276.705L524.676 276.614L524.58 278.705H526.674V276.705ZM526.684 276.705H528.684V274.705H526.684V276.705ZM526.684 307.097V309.097H528.684V307.097H526.684ZM526.674 307.097V305.097H524.763L524.676 307.005L526.674 307.097ZM466.342 328.593V330.593V330.593V328.593ZM406.01 307.097L408.008 307.005L407.92 305.097H406.01V307.097ZM406 307.097H404V309.097H406V307.097ZM406 276.705V274.705H404V276.705H406ZM406.01 276.705V278.705H408.104L408.008 276.614L406.01 276.705ZM406 276.335H404V276.335L406 276.335ZM466.342 254.468V256.468C482.835 256.468 497.679 258.894 508.328 262.753C513.661 264.686 517.836 266.94 520.64 269.342C523.451 271.751 524.684 274.121 524.684 276.335H526.684H528.684C528.684 272.511 526.539 269.129 523.243 266.305C519.94 263.475 515.278 261.017 509.691 258.993C498.501 254.937 483.175 252.468 466.342 252.468V254.468ZM526.684 276.335L524.684 276.335C524.684 276.416 524.681 276.506 524.676 276.614L526.674 276.705L528.672 276.797C528.678 276.659 528.684 276.502 528.684 276.335L526.684 276.335ZM526.674 276.705V278.705H526.684V276.705V274.705H526.674V276.705ZM526.684 276.705H524.684V307.097H526.684H528.684V276.705H526.684ZM526.684 307.097V305.097H526.674V307.097V309.097H526.684V307.097ZM526.674 307.097L524.676 307.005C524.575 309.201 523.252 311.557 520.379 313.939C517.517 316.31 513.32 318.528 508 320.426C497.374 324.217 482.665 326.593 466.342 326.593V328.593V330.593C483.003 330.593 498.186 328.174 509.344 324.193C514.915 322.206 519.583 319.794 522.931 317.018C526.267 314.253 528.499 310.946 528.672 307.189L526.674 307.097ZM466.342 328.593V326.593C450.019 326.593 435.31 324.217 424.684 320.426C419.363 318.528 415.166 316.31 412.305 313.939C409.431 311.557 408.108 309.201 408.008 307.005L406.01 307.097L404.012 307.189C404.184 310.946 406.416 314.253 409.752 317.018C413.101 319.794 417.768 322.206 423.34 324.193C434.497 328.174 449.681 330.593 466.342 330.593V328.593ZM406.01 307.097V305.097H406V307.097V309.097H406.01V307.097ZM406 307.097H408V276.705H406H404V307.097H406ZM406 276.705V278.705H406.01V276.705V274.705H406V276.705ZM406.01 276.705L408.008 276.614C408.003 276.506 408 276.416 408 276.335L406 276.335L404 276.335C404 276.502 404.006 276.659 404.012 276.797L406.01 276.705ZM406 276.335H408C408 274.121 409.232 271.751 412.043 269.342C414.847 266.94 419.022 264.686 424.355 262.753C435.004 258.894 449.849 256.468 466.342 256.468V254.468V252.468C449.509 252.468 434.182 254.937 422.992 258.993C417.406 261.017 412.744 263.475 409.441 266.305C406.145 269.129 404 272.511 404 276.335H406Z" fill="#4F46E5" mask="url(#path-14-inside-2_90_1175)"/>
<path d="M466.342 255.468C482.92 255.468 497.884 257.905 508.669 261.813C514.065 263.768 518.362 266.074 521.291 268.583C524.223 271.096 525.684 273.719 525.684 276.335C525.684 278.952 524.223 281.575 521.291 284.087C518.362 286.597 514.065 288.902 508.669 290.858C497.884 294.766 482.92 297.203 466.342 297.203C449.764 297.203 434.799 294.766 424.015 290.858C418.618 288.902 414.321 286.597 411.393 284.087C408.46 281.575 407 278.952 407 276.335C407 273.719 408.46 271.096 411.393 268.583C414.321 266.074 418.618 263.768 424.015 261.813C434.799 257.905 449.764 255.468 466.342 255.468Z" fill="white" stroke="#4F46E5" stroke-width="2"/>
<path d="M419.409 299.202C420.919 299.202 422.134 300.418 422.134 301.908C422.134 303.398 420.919 304.614 419.409 304.614C417.9 304.614 416.685 303.398 416.685 301.908C416.685 300.419 417.9 299.202 419.409 299.202Z" fill="white" stroke="#4F46E5" stroke-width="2"/>
<mask id="path-18-inside-3_90_1175" fill="white">
<path d="M466.342 210.734C499.668 210.734 526.684 220.524 526.684 232.601C526.684 232.725 526.679 232.848 526.674 232.971H526.684V263.363H526.674C526.128 275.269 499.326 284.859 466.342 284.859C433.358 284.859 406.556 275.269 406.01 263.363H406V232.971H406.01C406.004 232.848 406 232.725 406 232.601C406 220.524 433.016 210.734 466.342 210.734Z"/>
</mask>
<path d="M466.342 210.734C499.668 210.734 526.684 220.524 526.684 232.601C526.684 232.725 526.679 232.848 526.674 232.971H526.684V263.363H526.674C526.128 275.269 499.326 284.859 466.342 284.859C433.358 284.859 406.556 275.269 406.01 263.363H406V232.971H406.01C406.004 232.848 406 232.725 406 232.601C406 220.524 433.016 210.734 466.342 210.734Z" fill="#D8D5FF"/>
<path d="M466.342 210.734V208.734V208.734V210.734ZM526.684 232.601L528.684 232.601V232.601H526.684ZM526.674 232.971L524.676 232.88L524.58 234.971H526.674V232.971ZM526.684 232.971H528.684V230.971H526.684V232.971ZM526.684 263.363V265.363H528.684V263.363H526.684ZM526.674 263.363V261.363H524.763L524.676 263.271L526.674 263.363ZM466.342 284.859V286.859V286.859V284.859ZM406.01 263.363L408.008 263.271L407.92 261.363H406.01V263.363ZM406 263.363H404V265.363H406V263.363ZM406 232.971V230.971H404V232.971H406ZM406.01 232.971V234.971H408.104L408.008 232.88L406.01 232.971ZM406 232.601H404V232.601L406 232.601ZM466.342 210.734V212.734C482.835 212.734 497.679 215.16 508.328 219.019C513.661 220.952 517.836 223.206 520.64 225.608C523.451 228.017 524.684 230.387 524.684 232.601H526.684H528.684C528.684 228.777 526.539 225.395 523.243 222.571C519.94 219.741 515.278 217.283 509.691 215.259C498.501 211.203 483.175 208.734 466.342 208.734V210.734ZM526.684 232.601L524.684 232.601C524.684 232.682 524.681 232.772 524.676 232.88L526.674 232.971L528.672 233.063C528.678 232.925 528.684 232.768 528.684 232.601L526.684 232.601ZM526.674 232.971V234.971H526.684V232.971V230.971H526.674V232.971ZM526.684 232.971H524.684V263.363H526.684H528.684V232.971H526.684ZM526.684 263.363V261.363H526.674V263.363V265.363H526.684V263.363ZM526.674 263.363L524.676 263.271C524.575 265.467 523.252 267.823 520.379 270.205C517.517 272.576 513.32 274.794 508 276.692C497.374 280.483 482.665 282.859 466.342 282.859V284.859V286.859C483.003 286.859 498.186 284.44 509.344 280.459C514.915 278.472 519.583 276.06 522.931 273.284C526.267 270.519 528.499 267.212 528.672 263.455L526.674 263.363ZM466.342 284.859V282.859C450.019 282.859 435.31 280.483 424.684 276.692C419.363 274.794 415.166 272.576 412.305 270.205C409.431 267.823 408.108 265.467 408.008 263.271L406.01 263.363L404.012 263.455C404.184 267.212 406.416 270.519 409.752 273.284C413.101 276.06 417.768 278.472 423.34 280.459C434.497 284.44 449.681 286.859 466.342 286.859V284.859ZM406.01 263.363V261.363H406V263.363V265.363H406.01V263.363ZM406 263.363H408V232.971H406H404V263.363H406ZM406 232.971V234.971H406.01V232.971V230.971H406V232.971ZM406.01 232.971L408.008 232.88C408.003 232.772 408 232.682 408 232.601L406 232.601L404 232.601C404 232.768 404.006 232.925 404.012 233.063L406.01 232.971ZM406 232.601H408C408 230.387 409.232 228.017 412.043 225.608C414.847 223.206 419.022 220.952 424.355 219.019C435.004 215.16 449.849 212.734 466.342 212.734V210.734V208.734C449.509 208.734 434.182 211.203 422.992 215.259C417.406 217.283 412.744 219.741 409.441 222.571C406.145 225.395 404 228.777 404 232.601H406Z" fill="#4F46E5" mask="url(#path-18-inside-3_90_1175)"/>
<path d="M466.342 211.734C482.92 211.734 497.884 214.171 508.669 218.079C514.065 220.034 518.362 222.34 521.291 224.849C524.223 227.362 525.684 229.985 525.684 232.601C525.684 235.218 524.223 237.841 521.291 240.353C518.362 242.863 514.065 245.168 508.669 247.124C497.884 251.032 482.92 253.468 466.342 253.468C449.764 253.468 434.799 251.032 424.015 247.124C418.618 245.168 414.321 242.863 411.393 240.353C408.46 237.841 407 235.218 407 232.601C407 229.985 408.46 227.362 411.393 224.849C414.321 222.34 418.618 220.034 424.015 218.079C434.799 214.171 449.764 211.734 466.342 211.734Z" fill="white" stroke="#4F46E5" stroke-width="2"/>
<path d="M419.409 255.468C420.919 255.468 422.134 256.684 422.134 258.174C422.134 259.664 420.919 260.88 419.409 260.88C417.9 260.88 416.685 259.664 416.685 258.174C416.685 256.684 417.9 255.468 419.409 255.468Z" fill="white" stroke="#4F46E5" stroke-width="2"/>
<mask id="path-22-inside-4_90_1175" fill="white">
<path d="M466.342 167C499.668 167 526.684 176.79 526.684 188.867C526.684 188.991 526.679 189.114 526.674 189.237H526.684V219.629H526.674C526.128 231.535 499.326 241.125 466.342 241.125C433.358 241.125 406.556 231.535 406.01 219.629H406V189.237H406.01C406.004 189.114 406 188.991 406 188.867C406 176.79 433.016 167 466.342 167Z"/>
</mask>
<path d="M466.342 167C499.668 167 526.684 176.79 526.684 188.867C526.684 188.991 526.679 189.114 526.674 189.237H526.684V219.629H526.674C526.128 231.535 499.326 241.125 466.342 241.125C433.358 241.125 406.556 231.535 406.01 219.629H406V189.237H406.01C406.004 189.114 406 188.991 406 188.867C406 176.79 433.016 167 466.342 167Z" fill="#D8D5FF"/>
<path d="M466.342 167V165V165V167ZM526.684 188.867L528.684 188.867V188.867H526.684ZM526.674 189.237L524.676 189.146L524.58 191.237H526.674V189.237ZM526.684 189.237H528.684V187.237H526.684V189.237ZM526.684 219.629V221.629H528.684V219.629H526.684ZM526.674 219.629V217.629H524.763L524.676 219.537L526.674 219.629ZM466.342 241.125V243.125V243.125V241.125ZM406.01 219.629L408.008 219.537L407.92 217.629H406.01V219.629ZM406 219.629H404V221.629H406V219.629ZM406 189.237V187.237H404V189.237H406ZM406.01 189.237V191.237H408.104L408.008 189.146L406.01 189.237ZM406 188.867H404V188.867L406 188.867ZM466.342 167V169C482.835 169 497.679 171.426 508.328 175.285C513.661 177.218 517.836 179.472 520.64 181.874C523.451 184.283 524.684 186.653 524.684 188.867H526.684H528.684C528.684 185.043 526.539 181.661 523.243 178.837C519.94 176.007 515.278 173.549 509.691 171.524C498.501 167.469 483.175 165 466.342 165V167ZM526.684 188.867L524.684 188.867C524.684 188.948 524.681 189.038 524.676 189.146L526.674 189.237L528.672 189.329C528.678 189.191 528.684 189.034 528.684 188.867L526.684 188.867ZM526.674 189.237V191.237H526.684V189.237V187.237H526.674V189.237ZM526.684 189.237H524.684V219.629H526.684H528.684V189.237H526.684ZM526.684 219.629V217.629H526.674V219.629V221.629H526.684V219.629ZM526.674 219.629L524.676 219.537C524.575 221.733 523.252 224.089 520.379 226.471C517.517 228.842 513.32 231.06 508 232.958C497.374 236.749 482.665 239.125 466.342 239.125V241.125V243.125C483.003 243.125 498.186 240.706 509.344 236.725C514.915 234.738 519.583 232.325 522.931 229.55C526.267 226.785 528.499 223.478 528.672 219.721L526.674 219.629ZM466.342 241.125V239.125C450.019 239.125 435.31 236.749 424.684 232.958C419.363 231.06 415.166 228.842 412.305 226.471C409.431 224.089 408.108 221.733 408.008 219.537L406.01 219.629L404.012 219.721C404.184 223.478 406.416 226.785 409.752 229.55C413.101 232.325 417.768 234.738 423.34 236.725C434.497 240.706 449.681 243.125 466.342 243.125V241.125ZM406.01 219.629V217.629H406V219.629V221.629H406.01V219.629ZM406 219.629H408V189.237H406H404V219.629H406ZM406 189.237V191.237H406.01V189.237V187.237H406V189.237ZM406.01 189.237L408.008 189.146C408.003 189.038 408 188.948 408 188.867L406 188.867L404 188.867C404 189.034 404.006 189.191 404.012 189.329L406.01 189.237ZM406 188.867H408C408 186.653 409.232 184.283 412.043 181.874C414.847 179.472 419.022 177.218 424.355 175.285C435.004 171.426 449.849 169 466.342 169V167V165C449.509 165 434.182 167.469 422.992 171.524C417.406 173.549 412.744 176.007 409.441 178.837C406.145 181.661 404 185.043 404 188.867H406Z" fill="#4F46E5" mask="url(#path-22-inside-4_90_1175)"/>
<path d="M466.342 168C482.92 168 497.884 170.437 508.669 174.345C514.065 176.3 518.362 178.606 521.291 181.115C524.223 183.627 525.684 186.251 525.684 188.867C525.684 191.484 524.223 194.107 521.291 196.619C518.362 199.128 514.065 201.434 508.669 203.39C497.884 207.298 482.92 209.734 466.342 209.734C449.764 209.734 434.799 207.298 424.015 203.39C418.618 201.434 414.321 199.128 411.393 196.619C408.46 194.107 407 191.484 407 188.867C407 186.251 408.46 183.627 411.393 181.115C414.321 178.606 418.618 176.3 424.015 174.345C434.799 170.437 449.764 168 466.342 168Z" fill="white" stroke="#4F46E5" stroke-width="2"/>
<path d="M419.409 211.734C420.919 211.734 422.134 212.95 422.134 214.44C422.134 215.93 420.919 217.146 419.409 217.146C417.9 217.146 416.685 215.93 416.685 214.44C416.685 212.95 417.9 211.734 419.409 211.734Z" fill="white" stroke="#4F46E5" stroke-width="2"/>
<path d="M510.648 258.638C510.314 259.392 510.214 260.229 510.362 261.041C510.509 261.852 510.898 262.601 511.478 263.191L511.629 263.341C512.096 263.806 512.467 264.358 512.72 264.965C512.973 265.572 513.104 266.223 513.104 266.881C513.104 267.538 512.973 268.19 512.72 268.797C512.467 269.404 512.096 269.956 511.629 270.421C511.162 270.886 510.607 271.255 509.997 271.507C509.386 271.759 508.732 271.888 508.071 271.888C507.41 271.888 506.756 271.759 506.146 271.507C505.535 271.255 504.98 270.886 504.513 270.421L504.363 270.271C503.77 269.694 503.017 269.307 502.202 269.16C501.386 269.013 500.545 269.112 499.787 269.445C499.043 269.762 498.409 270.289 497.962 270.96C497.515 271.631 497.276 272.418 497.272 273.223V273.648C497.272 274.975 496.743 276.248 495.8 277.186C494.857 278.124 493.578 278.652 492.244 278.652C490.91 278.652 489.631 278.124 488.688 277.186C487.745 276.248 487.216 274.975 487.216 273.648V273.423C487.196 272.595 486.927 271.792 486.442 271.118C485.958 270.444 485.281 269.931 484.5 269.645C483.742 269.312 482.901 269.213 482.085 269.36C481.269 269.507 480.517 269.894 479.924 270.471L479.773 270.621C479.306 271.086 478.752 271.455 478.141 271.707C477.531 271.959 476.877 272.089 476.216 272.089C475.555 272.089 474.901 271.959 474.29 271.707C473.68 271.455 473.125 271.086 472.658 270.621C472.191 270.156 471.82 269.605 471.567 268.997C471.314 268.39 471.183 267.739 471.183 267.081C471.183 266.424 471.314 265.772 471.567 265.165C471.82 264.558 472.191 264.006 472.658 263.541L472.809 263.391C473.389 262.801 473.777 262.053 473.925 261.241C474.073 260.429 473.973 259.592 473.639 258.838C473.32 258.098 472.791 257.467 472.116 257.022C471.442 256.578 470.651 256.339 469.842 256.336H469.415C468.081 256.336 466.802 255.809 465.859 254.871C464.916 253.932 464.386 252.66 464.386 251.333C464.386 250.006 464.916 248.733 465.859 247.795C466.802 246.856 468.081 246.329 469.415 246.329H469.641C470.473 246.31 471.28 246.042 471.957 245.56C472.634 245.078 473.15 244.405 473.437 243.627C473.772 242.873 473.872 242.036 473.724 241.224C473.576 240.413 473.187 239.664 472.608 239.074L472.457 238.924C471.989 238.459 471.619 237.908 471.365 237.3C471.112 236.693 470.982 236.042 470.982 235.384C470.982 234.727 471.112 234.075 471.365 233.468C471.619 232.861 471.989 232.309 472.457 231.844C472.924 231.379 473.479 231.01 474.089 230.758C474.699 230.506 475.354 230.377 476.015 230.377C476.675 230.377 477.33 230.506 477.94 230.758C478.551 231.01 479.105 231.379 479.572 231.844L479.723 231.994C480.316 232.571 481.068 232.958 481.884 233.105C482.699 233.252 483.541 233.153 484.299 232.82H484.5C485.244 232.503 485.878 231.976 486.325 231.305C486.771 230.634 487.011 229.847 487.014 229.042V228.617C487.014 227.29 487.544 226.017 488.487 225.079C489.43 224.141 490.709 223.613 492.043 223.613C493.376 223.613 494.655 224.141 495.599 225.079C496.542 226.017 497.071 227.29 497.071 228.617V228.842C497.075 229.647 497.314 230.434 497.761 231.105C498.208 231.776 498.842 232.303 499.586 232.62C500.344 232.953 501.185 233.052 502.001 232.905C502.816 232.758 503.569 232.371 504.161 231.794L504.312 231.644C504.779 231.179 505.334 230.81 505.944 230.558C506.555 230.306 507.209 230.177 507.87 230.177C508.531 230.177 509.185 230.306 509.796 230.558C510.406 230.81 510.961 231.179 511.428 231.644C511.895 232.109 512.266 232.66 512.519 233.268C512.772 233.875 512.902 234.526 512.902 235.184C512.902 235.841 512.772 236.493 512.519 237.1C512.266 237.707 511.895 238.259 511.428 238.724L511.277 238.874C510.697 239.464 510.308 240.212 510.16 241.024C510.013 241.836 510.112 242.673 510.447 243.427V243.627C510.766 244.367 511.295 244.998 511.97 245.443C512.644 245.887 513.435 246.126 514.244 246.129H514.671C516.005 246.129 517.284 246.656 518.227 247.595C519.17 248.533 519.699 249.806 519.699 251.133C519.699 252.46 519.17 253.732 518.227 254.671C517.284 255.609 516.005 256.136 514.671 256.136H514.445C513.636 256.139 512.845 256.378 512.171 256.822C511.496 257.267 510.967 257.898 510.648 258.638Z" fill="white" stroke="#4F46E5" stroke-width="2" stroke-linecap="round" stroke-linejoin="round"/>
<path d="M492.043 258.638C496.208 258.638 499.585 255.278 499.585 251.133C499.585 246.987 496.208 243.627 492.043 243.627C487.877 243.627 484.5 246.987 484.5 251.133C484.5 255.278 487.877 258.638 492.043 258.638Z" stroke="#4F46E5" stroke-width="2" stroke-linecap="round" stroke-linejoin="round"/>
<rect x="73" y="161" width="92" height="122" rx="7" fill="#D8D5FF" stroke="#4F46E5" stroke-width="2"/>
<rect x="81" y="169" width="92" height="122" rx="7" fill="#D8D5FF" stroke="#4F46E5" stroke-width="2"/>
<rect x="89" y="177" width="92" height="122" rx="7" fill="white" stroke="#4F46E5" stroke-width="2"/>
<path d="M103 221V281H169.338" stroke="#4F46E5" stroke-width="1.5" stroke-linecap="round"/>
<rect x="153.782" y="228.261" width="8.29577" height="43.7887" fill="white" stroke="#4F46E5"/>
<rect x="139.416" y="238.401" width="8.29577" height="33.6479" fill="#D8D5FF" stroke="#4F46E5"/>
<rect x="125.049" y="247.697" width="8.29577" height="24.3521" fill="white" stroke="#4F46E5"/>
<rect x="110.683" y="256.993" width="8.29577" height="15.0563" fill="#D8D5FF" stroke="#4F46E5"/>
<mask id="mask2_90_1175" style="mask-type:alpha" maskUnits="userSpaceOnUse" x="148" y="211" width="94" height="124">
<path d="M156 212H218.822L241 234.596V327C241 330.866 237.866 334 234 334H156C152.134 334 149 330.866 149 327V219C149 215.134 152.134 212 156 212Z" fill="white" stroke="#4F46E5" stroke-width="2"/>
</mask>
<g mask="url(#mask2_90_1175)">
<path d="M156 212H218.822L241 234.596V327C241 330.866 237.866 334 234 334H156C152.134 334 149 330.866 149 327V219C149 215.134 152.134 212 156 212Z" fill="white" stroke="#4F46E5" stroke-width="2"/>
<path d="M229.907 223.294L240.607 234.195H224.252C221.491 234.195 219.252 231.956 219.252 229.195V212.438L229.907 223.294Z" fill="#D8D5FF" stroke="#4F46E5" stroke-width="2"/>
</g>
<mask id="mask3_90_1175" style="mask-type:alpha" maskUnits="userSpaceOnUse" x="163" y="247" width="64" height="75">
<rect x="164" y="248" width="62" height="73" rx="3" fill="white" stroke="#4F46E5" stroke-width="2"/>
</mask>
<g mask="url(#mask3_90_1175)">
<rect x="163" y="247" width="64" height="10.7143" fill="#ACA7FF"/>
<rect x="163" y="257.714" width="64" height="10.7143" fill="#ECEBFF"/>
<rect x="163" y="268.429" width="64" height="10.7143" fill="#D8D5FF"/>
<rect x="163" y="279.143" width="64" height="10.7143" fill="#ECEBFF"/>
<rect x="163" y="289.857" width="64" height="10.7143" fill="#D8D5FF"/>
<rect x="163" y="300.571" width="64" height="10.7143" fill="#ECEBFF"/>
<rect x="163" y="311.286" width="64" height="10.7143" fill="#D8D5FF"/>
<path d="M162.366 258.161H228.267" stroke="#4F46E5"/>
<path d="M162.366 268.429H228.267" stroke="#4F46E5"/>
<path d="M162.366 279.143H228.267" stroke="#4F46E5"/>
<path d="M162.366 289.857H228.267" stroke="#4F46E5"/>
<path d="M161.733 300.571H227.634" stroke="#4F46E5"/>
<path d="M160.465 311.286H226.366" stroke="#4F46E5"/>
<path d="M182.644 338.071L182.644 245.214" stroke="#4F46E5"/>
<path d="M206.089 338.071L206.089 245.214" stroke="#4F46E5"/>
</g>
</svg>
