<svg width="150" height="50" viewBox="0 0 150 50" fill="none" xmlns="http://www.w3.org/2000/svg">
<path d="M11 12.1952L21.2857 18.1336L33.4761 11.0955" stroke="black" stroke-linecap="round"/>
<path d="M11 19.0089L21.2857 24.9474L33.4761 17.9092" stroke="black" stroke-linecap="round"/>
<path d="M11 25.8224L21.2857 31.7608L33.4761 24.7227" stroke="black" stroke-linecap="round"/>
<path d="M11 32.6376L21.2857 38.576L33.4761 31.5378" stroke="black" stroke-linecap="round"/>
<path d="M18.619 8.0792L23.9524 5L33.4761 10.7143V37.9472L21.2603 45" stroke="black" stroke-linecap="round"/>
<path d="M45.9592 22.6858H45.4762L50.6751 8.14038H51.3001L56.4989 22.6858H56.016L51.016 8.70856H50.9592L45.9592 22.6858ZM47.6069 17.3165H54.3682V17.7711H47.6069V17.3165Z" fill="black"/>
<path d="M59.0788 26.7767V11.7767H59.5334V14.5608H59.5902C59.7891 13.9548 60.066 13.4316 60.4212 12.9912C60.7763 12.5509 61.1953 12.21 61.6783 11.9685C62.1659 11.727 62.701 11.6063 63.2834 11.6063C64.1451 11.6063 64.8885 11.8549 65.5135 12.352C66.1432 12.8445 66.6285 13.5168 66.9694 14.3691C67.3151 15.2213 67.4879 16.1849 67.4879 17.2597C67.4879 18.3298 67.3151 19.2909 66.9694 20.1432C66.6238 20.9955 66.1361 21.6702 65.5064 22.1674C64.8766 22.6645 64.1356 22.9131 63.2834 22.9131C62.7057 22.9131 62.173 22.7947 61.6854 22.558C61.1977 22.3165 60.7739 21.9756 60.4141 21.5353C60.0542 21.0902 59.7796 20.5646 59.5902 19.9586H59.5334V26.7767H59.0788ZM59.5334 17.2597C59.5334 18.2445 59.6849 19.13 59.9879 19.9159C60.2957 20.6972 60.7289 21.3175 61.2876 21.7767C61.8511 22.2313 62.5163 22.4586 63.2834 22.4586C64.0504 22.4586 64.7133 22.2313 65.272 21.7767C65.8355 21.3175 66.2687 20.6972 66.5717 19.9159C66.8795 19.13 67.0334 18.2445 67.0334 17.2597C67.0334 16.2749 66.8819 15.3918 66.5788 14.6106C66.2758 13.8246 65.8426 13.2043 65.2791 12.7498C64.7204 12.2905 64.0551 12.0608 63.2834 12.0608C62.5116 12.0608 61.844 12.2905 61.2805 12.7498C60.7218 13.2043 60.2909 13.8246 59.9879 14.6106C59.6849 15.3918 59.5334 16.2749 59.5334 17.2597Z" fill="black"/>
<path d="M73.4272 22.9131C72.8306 22.9131 72.279 22.79 71.7724 22.5438C71.2705 22.2976 70.8656 21.9377 70.5579 21.4642C70.2548 20.9908 70.1033 20.4131 70.1033 19.7313C70.1033 19.362 70.1625 19.0163 70.2809 18.6944C70.3993 18.3677 70.6076 18.0717 70.9059 17.8066C71.2042 17.5414 71.6208 17.3142 72.1559 17.1248C72.6957 16.9354 73.3846 16.7909 74.2226 16.6915C74.7245 16.6347 75.198 16.5684 75.6431 16.4927C76.0882 16.4169 76.4504 16.3033 76.7297 16.1517C77.0091 16.0002 77.1488 15.7824 77.1488 15.4983V14.8449C77.1488 14.0069 76.8671 13.3345 76.3036 12.8279C75.7402 12.3165 74.9897 12.0608 74.0522 12.0608C73.2851 12.0608 72.6152 12.2313 72.0422 12.5722C71.4693 12.9084 71.0692 13.3819 70.842 13.9927L70.4158 13.8222C70.5863 13.3677 70.8491 12.9747 71.2042 12.6432C71.5593 12.3118 71.9807 12.0561 72.4684 11.8762C72.9561 11.6963 73.484 11.6063 74.0522 11.6063C74.6062 11.6063 75.101 11.6891 75.5366 11.8549C75.9769 12.0159 76.351 12.2431 76.6587 12.5367C76.9665 12.8255 77.2009 13.1664 77.3618 13.5594C77.5228 13.9524 77.6033 14.3809 77.6033 14.8449V22.6858H77.1488V20.4699H77.092C76.8647 20.9624 76.5688 21.3932 76.2042 21.7625C75.8443 22.1271 75.4277 22.4112 74.9542 22.6148C74.4854 22.8137 73.9764 22.9131 73.4272 22.9131ZM73.4272 22.4586C74.1185 22.4586 74.7458 22.2739 75.3093 21.9046C75.8727 21.5305 76.3202 21.0121 76.6516 20.3492C76.9831 19.6816 77.1488 18.9074 77.1488 18.0267V16.379C77.0162 16.4784 76.8552 16.566 76.6658 16.6418C76.4812 16.7176 76.2705 16.7862 76.0337 16.8478C75.8017 16.9046 75.5484 16.9543 75.2738 16.9969C74.9992 17.0395 74.7056 17.0798 74.3931 17.1177C73.4177 17.2313 72.6507 17.4041 72.092 17.6361C71.5333 17.8681 71.1379 18.1593 70.9059 18.5097C70.6739 18.8601 70.5579 19.2673 70.5579 19.7313C70.5579 20.5552 70.8325 21.2157 71.3817 21.7128C71.9357 22.21 72.6175 22.4586 73.4272 22.4586Z" fill="black"/>
<path d="M81.5202 22.6858V11.7767H81.9748V13.5097H82.0316C82.2873 12.9415 82.7063 12.487 83.2887 12.1461C83.8758 11.8052 84.5458 11.6347 85.2986 11.6347C85.3555 11.6347 85.3933 11.6347 85.4123 11.6347C85.4312 11.6347 85.4691 11.6347 85.5259 11.6347V12.0892C85.4691 12.0892 85.4312 12.0892 85.4123 12.0892C85.3933 12.0892 85.3555 12.0892 85.2986 12.0892C84.6547 12.0892 84.0818 12.2289 83.5799 12.5083C83.0827 12.7876 82.6897 13.1735 82.4009 13.6659C82.1168 14.1584 81.9748 14.7218 81.9748 15.3563V22.6858H81.5202Z" fill="black"/>
<path d="M92.1168 11.7767V12.2313H87.7986V11.7767H92.1168ZM89.3895 9.16311H89.8441V20.3847C89.8441 20.8108 89.9388 21.1778 90.1282 21.4856C90.3176 21.7886 90.5685 22.023 90.881 22.1887C91.1935 22.3497 91.5297 22.4302 91.8895 22.4302C92.0269 22.4302 92.1523 22.4183 92.266 22.3946C92.3843 22.371 92.5051 22.3355 92.6282 22.2881L92.7702 22.7142C92.6282 22.7663 92.4885 22.8066 92.3512 22.835C92.2139 22.8681 92.06 22.8847 91.8895 22.8847C91.4445 22.8847 91.0302 22.7829 90.6467 22.5793C90.2679 22.3757 89.9625 22.0869 89.7305 21.7128C89.5032 21.3388 89.3895 20.8961 89.3895 20.3847V9.16311Z" fill="black"/>
<path d="M95.6609 22.6858V11.7767H96.1154V13.3961H96.1722C96.3711 12.8658 96.7262 12.4396 97.2376 12.1177C97.7537 11.7957 98.3739 11.6347 99.0984 11.6347C99.9222 11.6347 100.578 11.8383 101.066 12.2455C101.558 12.6527 101.897 13.1972 102.081 13.879H102.138C102.318 13.1972 102.683 12.6527 103.232 12.2455C103.781 11.8383 104.468 11.6347 105.292 11.6347C106.385 11.6347 107.193 11.9827 107.713 12.6787C108.239 13.37 108.502 14.2625 108.502 15.3563V22.6858H108.047V15.3563C108.047 14.3904 107.829 13.6044 107.394 12.9983C106.958 12.3923 106.257 12.0892 105.292 12.0892C104.326 12.0892 103.587 12.397 103.076 13.0125C102.564 13.6233 102.309 14.4046 102.309 15.3563V22.6858H101.854V15.3563C101.854 14.3904 101.636 13.6044 101.201 12.9983C100.765 12.3923 100.064 12.0892 99.0984 12.0892C98.4544 12.0892 97.9099 12.2289 97.4648 12.5083C97.0245 12.7876 96.6883 13.1735 96.4563 13.6659C96.229 14.1584 96.1154 14.7218 96.1154 15.3563V22.6858H95.6609Z" fill="black"/>
<path d="M116.451 22.9131C115.499 22.9131 114.666 22.6645 113.951 22.1674C113.241 21.6702 112.689 20.9955 112.296 20.1432C111.903 19.2909 111.707 18.3298 111.707 17.2597C111.707 16.1896 111.903 15.2284 112.296 14.3762C112.694 13.5239 113.234 12.8492 113.915 12.352C114.597 11.8549 115.367 11.6063 116.224 11.6063C116.858 11.6063 117.445 11.7412 117.985 12.0111C118.53 12.281 119.003 12.6551 119.406 13.1333C119.808 13.6115 120.12 14.1631 120.343 14.7881C120.57 15.4084 120.684 16.0713 120.684 16.7767V17.2313H111.934V16.7767H120.229C120.229 15.9008 120.049 15.1077 119.69 14.3975C119.33 13.6825 118.847 13.1143 118.241 12.6929C117.635 12.2715 116.962 12.0608 116.224 12.0608C115.476 12.0608 114.799 12.2834 114.192 12.7284C113.586 13.1735 113.101 13.7796 112.736 14.5466C112.372 15.3137 112.18 16.1802 112.161 17.1461V17.2029C112.161 18.1546 112.327 19.0305 112.658 19.8307C112.995 20.6262 113.482 21.263 114.121 21.7412C114.761 22.2195 115.537 22.4586 116.451 22.4586C117.123 22.4586 117.687 22.3402 118.141 22.1034C118.601 21.8667 118.968 21.5945 119.242 21.2867C119.522 20.9789 119.728 20.7161 119.86 20.4983L120.229 20.754C120.068 21.0286 119.827 21.334 119.505 21.6702C119.183 22.0064 118.771 22.2976 118.269 22.5438C117.767 22.79 117.161 22.9131 116.451 22.9131Z" fill="black"/>
<path d="M124.358 15.3563V22.6858H123.903V11.7767H124.358V13.5097H124.414C124.67 12.9415 125.089 12.487 125.672 12.1461C126.259 11.8052 126.929 11.6347 127.681 11.6347C128.411 11.6347 129.055 11.7933 129.613 12.1106C130.172 12.4278 130.61 12.8658 130.927 13.4245C131.244 13.9832 131.403 14.6271 131.403 15.3563V22.6858H130.948V15.3563C130.948 14.3904 130.645 13.6044 130.039 12.9983C129.433 12.3923 128.647 12.0892 127.681 12.0892C127.038 12.0892 126.465 12.2289 125.963 12.5083C125.466 12.7876 125.073 13.1735 124.784 13.6659C124.5 14.1584 124.358 14.7218 124.358 15.3563Z" fill="black"/>
<path d="M138.679 11.7767V12.2313H134.361V11.7767H138.679ZM135.952 9.16311H136.407V20.3847C136.407 20.8108 136.501 21.1778 136.691 21.4856C136.88 21.7886 137.131 22.023 137.444 22.1887C137.756 22.3497 138.092 22.4302 138.452 22.4302C138.589 22.4302 138.715 22.4183 138.828 22.3946C138.947 22.371 139.068 22.3355 139.191 22.2881L139.333 22.7142C139.191 22.7663 139.051 22.8066 138.914 22.835C138.776 22.8681 138.623 22.8847 138.452 22.8847C138.007 22.8847 137.593 22.7829 137.209 22.5793C136.83 22.3757 136.525 22.0869 136.293 21.7128C136.066 21.3388 135.952 20.8961 135.952 20.3847V9.16311Z" fill="black"/>
<path d="M45.5586 32.3392V31.504H52.9414V32.3392H49.7148V41.6858H48.7851V32.3392H45.5586Z" fill="black"/>
<path d="M54.0575 41.6858V34.0495H54.9176V35.2228H54.9822C55.1347 34.8383 55.3998 34.5284 55.7777 34.2931C56.1588 34.0544 56.5897 33.9351 57.0703 33.9351C57.1432 33.9351 57.2244 33.9368 57.3139 33.9401C57.4034 33.9434 57.478 33.9467 57.5376 33.95V34.8499C57.4979 34.8433 57.4283 34.8333 57.3288 34.8201C57.2294 34.8068 57.1217 34.8002 57.0057 34.8002C56.6079 34.8002 56.2533 34.8847 55.9418 35.0537C55.6335 35.2195 55.3899 35.4498 55.2109 35.7448C55.0319 36.0398 54.9425 36.3762 54.9425 36.754V41.6858H54.0575Z" fill="black"/>
<path d="M61.1806 41.8598C60.7199 41.8598 60.2989 41.7704 59.9178 41.5914C59.5366 41.4091 59.2334 41.1472 59.008 40.8059C58.7826 40.4612 58.6699 40.0436 58.6699 39.553C58.6699 39.1752 58.7412 38.857 58.8837 38.5985C59.0262 38.34 59.2284 38.1278 59.4902 37.9621C59.7521 37.7964 60.062 37.6655 60.4199 37.5694C60.7779 37.4732 61.1723 37.3987 61.6031 37.3456C62.0307 37.2926 62.392 37.2462 62.687 37.2064C62.9853 37.1667 63.2123 37.1037 63.3681 37.0175C63.5238 36.9313 63.6017 36.7921 63.6017 36.5999V36.4209C63.6017 35.9006 63.446 35.4912 63.1344 35.1929C62.8262 34.8913 62.382 34.7405 61.802 34.7405C61.2518 34.7405 60.8027 34.8615 60.4547 35.1034C60.11 35.3454 59.8681 35.6304 59.7289 35.9586L58.8887 35.6553C59.061 35.2377 59.2996 34.9046 59.6046 34.656C59.9095 34.4041 60.2509 34.2235 60.6287 34.1141C61.0066 34.0014 61.3894 33.9451 61.7772 33.9451C62.0688 33.9451 62.3721 33.9832 62.687 34.0594C63.0051 34.1356 63.3001 34.2682 63.5719 34.4571C63.8437 34.6427 64.0641 34.9029 64.2331 35.2377C64.4022 35.5691 64.4867 35.9901 64.4867 36.5005V41.6858H63.6017V40.4777H63.547C63.441 40.7031 63.2835 40.9219 63.0747 41.134C62.8659 41.3461 62.6041 41.5201 62.2892 41.656C61.9744 41.7919 61.6048 41.8598 61.1806 41.8598ZM61.2999 41.0495C61.7705 41.0495 62.1782 40.9451 62.5229 40.7363C62.8676 40.5275 63.1327 40.2507 63.3183 39.906C63.5073 39.558 63.6017 39.1752 63.6017 38.7576V37.6539C63.5354 37.7168 63.4244 37.7732 63.2686 37.8229C63.1162 37.8726 62.9388 37.9174 62.7367 37.9571C62.5378 37.9936 62.3389 38.0251 62.1401 38.0516C61.9412 38.0781 61.7622 38.1013 61.6031 38.1212C61.1723 38.1742 60.8044 38.2571 60.4995 38.3698C60.1945 38.4825 59.9609 38.6383 59.7985 38.8371C59.6361 39.0327 59.5549 39.2846 59.5549 39.5928C59.5549 40.0568 59.7206 40.4164 60.052 40.6716C60.3835 40.9235 60.7994 41.0495 61.2999 41.0495Z" fill="black"/>
<path d="M69.8237 41.8449C69.1409 41.8449 68.546 41.6742 68.0389 41.3329C67.5351 40.9915 67.144 40.5241 66.8656 39.9309C66.5872 39.3376 66.448 38.6615 66.448 37.9025C66.448 37.1368 66.5888 36.4557 66.8706 35.8591C67.1556 35.2625 67.55 34.7952 68.0538 34.4571C68.5576 34.1158 69.1426 33.9451 69.8088 33.9451C70.3192 33.9451 70.7815 34.0445 71.1958 34.2434C71.6101 34.4389 71.9515 34.7157 72.22 35.0736C72.4918 35.4283 72.6625 35.8426 72.7321 36.3165H71.8372C71.7444 35.8856 71.5206 35.5177 71.166 35.2128C70.8147 34.9046 70.3672 34.7505 69.8237 34.7505C69.3365 34.7505 68.9056 34.883 68.5311 35.1482C68.1565 35.41 67.8632 35.7763 67.6511 36.2469C67.4423 36.7142 67.3379 37.2561 67.3379 37.8726C67.3379 38.4924 67.4406 39.0409 67.6461 39.5182C67.8516 39.9922 68.14 40.3634 68.5112 40.6319C68.8857 40.9003 69.3232 41.0346 69.8237 41.0346C70.1617 41.0346 70.47 40.9716 70.7484 40.8456C71.0301 40.7164 71.2654 40.5341 71.4544 40.2988C71.6466 40.0634 71.7759 39.7834 71.8421 39.4586H72.737C72.6707 39.9193 72.5067 40.3302 72.2448 40.6915C71.9863 41.0495 71.6499 41.3312 71.2356 41.5367C70.8246 41.7422 70.354 41.8449 69.8237 41.8449Z" fill="black"/>
<path d="M75.4391 38.8023L75.4291 37.6439H75.628L79.2076 34.0495H80.3262L76.7914 37.5892L76.7118 37.6042L75.4391 38.8023ZM74.6337 41.6858V31.504H75.5186V41.6858H74.6337ZM79.3915 41.6858L76.2892 37.7633L76.9256 37.1517L80.525 41.6858H79.3915Z" fill="black"/>
<path d="M84.7621 41.8449C84.0495 41.8449 83.433 41.6792 82.9126 41.3478C82.3923 41.013 81.9896 40.5507 81.7045 39.9607C81.4228 39.3674 81.2819 38.6847 81.2819 37.9124C81.2819 37.1435 81.4228 36.4607 81.7045 35.8641C81.9896 35.2642 82.3823 34.7952 82.8828 34.4571C83.3866 34.1158 83.9683 33.9451 84.6278 33.9451C85.0421 33.9451 85.4415 34.0213 85.826 34.1738C86.2105 34.3229 86.5551 34.5533 86.8601 34.8648C87.1683 35.1731 87.4119 35.5625 87.5909 36.0331C87.7699 36.5005 87.8594 37.054 87.8594 37.6936V38.1311H81.8935V37.3506H86.9545C86.9545 36.8601 86.8551 36.4193 86.6562 36.0282C86.4607 35.6338 86.1873 35.3222 85.8359 35.0935C85.4879 34.8648 85.0852 34.7505 84.6278 34.7505C84.1439 34.7505 83.718 34.8797 83.3501 35.1383C82.9822 35.3968 82.6939 35.7382 82.4851 36.1624C82.2796 36.5866 82.1752 37.0507 82.1719 37.5544V38.0218C82.1719 38.6283 82.2763 39.1586 82.4851 39.6127C82.6972 40.0634 82.9971 40.4131 83.3849 40.6617C83.7727 40.9103 84.2318 41.0346 84.7621 41.0346C85.1233 41.0346 85.4399 40.9782 85.7116 40.8655C85.9867 40.7528 86.2171 40.602 86.4027 40.4131C86.5916 40.2209 86.7341 40.0104 86.8302 39.7817L87.6704 40.0552C87.5544 40.3767 87.3639 40.6733 87.0987 40.9451C86.8369 41.2168 86.5087 41.4356 86.1143 41.6013C85.7232 41.7637 85.2725 41.8449 84.7621 41.8449Z" fill="black"/>
<path d="M89.8095 41.6858V34.0495H90.6696V35.2228H90.7342C90.8867 34.8383 91.1518 34.5284 91.5296 34.2931C91.9108 34.0544 92.3417 33.9351 92.8223 33.9351C92.8952 33.9351 92.9764 33.9368 93.0659 33.9401C93.1554 33.9434 93.2299 33.9467 93.2896 33.95V34.8499C93.2498 34.8433 93.1802 34.8333 93.0808 34.8201C92.9813 34.8068 92.8736 34.8002 92.7576 34.8002C92.3599 34.8002 92.0053 34.8847 91.6937 35.0537C91.3855 35.2195 91.1419 35.4498 90.9629 35.7448C90.7839 36.0398 90.6944 36.3762 90.6944 36.754V41.6858H89.8095Z" fill="black"/>
</svg>
