<svg width="137" height="150" viewBox="0 0 137 150" fill="none" xmlns="http://www.w3.org/2000/svg">
<path d="M136.735 37.2409V111.724L68.3673 150L0 111.724V37.2409L68.3673 0L136.735 37.2409Z" fill="#ECEBFF"/>
<path d="M68.6956 65L85.3913 75.8522V87.5391L68.6956 98.3913L52 87.5391V75.8522L68.6956 65Z" fill="white" stroke="#4F46E5" stroke-width="2" stroke-linecap="round" stroke-linejoin="round"/>
<path d="M68.6958 98.3913V87.5391" stroke="#4F46E5" stroke-width="2" stroke-linecap="round" stroke-linejoin="round"/>
<path d="M85.3913 75.8521L68.6956 87.5391L52 75.8521" stroke="#4F46E5" stroke-width="2" stroke-linecap="round" stroke-linejoin="round"/>
<path d="M52 87.5391L68.6956 75.8521L85.3913 87.5391" stroke="#4F46E5" stroke-width="2" stroke-linecap="round" stroke-linejoin="round"/>
<path d="M68.6958 65V75.8521" stroke="#4F46E5" stroke-width="2" stroke-linecap="round" stroke-linejoin="round"/>
<path d="M68.25 50V60.5" stroke="#4F46E5" stroke-width="2" stroke-linecap="round" stroke-linejoin="round"/>
<path d="M73.5 55.25L68.25 60.5L63 55.25" stroke="#4F46E5" stroke-width="2" stroke-linecap="round" stroke-linejoin="round"/>
<path d="M98.7183 94.5466L89.625 89.2966" stroke="#4F46E5" stroke-width="2" stroke-linecap="round" stroke-linejoin="round"/>
<path d="M91.5464 96.4683L89.6248 89.2966L96.7964 87.375" stroke="#4F46E5" stroke-width="2" stroke-linecap="round" stroke-linejoin="round"/>
<path d="M38.625 94.5466L47.7183 89.2966" stroke="#4F46E5" stroke-width="2" stroke-linecap="round" stroke-linejoin="round"/>
<path d="M45.7969 96.4683L47.7185 89.2966L40.5469 87.375" stroke="#4F46E5" stroke-width="2" stroke-linecap="round" stroke-linejoin="round"/>
</svg>
