<?xml version="1.0" encoding="utf-8"?>
<!-- Generator: Adobe Illustrator 24.3.0, SVG Export Plug-In . SVG Version: 6.00 Build 0)  -->
<svg version="1.1" id="Layer_1" xmlns="http://www.w3.org/2000/svg" xmlns:xlink="http://www.w3.org/1999/xlink" x="0px" y="0px"
	 viewBox="0 0 841.9 595.3" style="enable-background:new 0 0 841.9 595.3;" xml:space="preserve">
<style type="text/css">
	.st0{fill:#FFFFFF;stroke:#000000;stroke-miterlimit:10;}
</style>
<path id="flat5" class="st0" d="M796,215.1L795.3,326c0,5.9-4.9,10.7-10.8,10.7l-79.5-0.4c-5.9,0-10.8,4.8-10.8,10.7l0,3.1
	c0,5.9-4.9,10.7-10.8,10.7l-13.4-0.1c-5.9,0-10.8,4.7-10.8,10.7l-0.2,23.5c0,5.9-4.9,10.7-10.8,10.7l-127.3-0.9
	c-5.9,0-10.7-4.9-10.7-10.8l1.3-180.1c0-5.9,4.9-10.7,10.8-10.7l263.1,1.3C791.3,204.3,796.1,209.2,796,215.1z"/>
<path id="flatt4" class="st0" d="M783.6,172.1l-268.5-1.7c-6,0-10.8-5-10.7-11l1.5-83.6c0.1-5.9,4.9-10.6,10.8-10.6l268.5,0.6
	c6,0,10.9,4.9,10.7,11l-1.5,84.7C794.3,167.5,789.5,172.2,783.6,172.1z"/>
<path id="flat3" class="st0" d="M448.5,405.6l-392.6-1.1c-6,0-10.8-4.9-10.7-10.9l1-77.1c0.1-5.9,4.9-10.6,10.8-10.6h0
	c5.9,0,10.7-4.7,10.8-10.6L69,194.6c0.1-5.9,4.9-10.6,10.8-10.6l371.3,1.1c6,0,10.8,4.9,10.7,10.9l-2.6,199
	C459.2,400.8,454.4,405.6,448.5,405.6z"/>
<path id="flat2" class="st0" d="M360.3,154.1L92,152.6c-5.9,0-10.7-4.9-10.7-10.8l0.2-36.7c0-6,4.9-10.7,10.8-10.7L346,95.9
	c4.9,0,9.1,3.3,10.3,8C360.6,119.8,369.4,154.2,360.3,154.1z"/>
<path id="flat1" class="st0" d="M55.9,517.3l590.3,1.9c6.7,0,11.7-5.9,10.7-12.5l-12.5-76.5c-0.9-5.2-5.3-9-10.6-9l-576.9-1.8
	c-5.9,0-10.7,4.7-10.8,10.7l-0.8,76.5C45.1,512.4,49.9,517.3,55.9,517.3z"/>
</svg>
